<?xml version="1.0" standalone="no"?>
<!DOCTYPE svg PUBLIC "-//W3C//DTD SVG 20010904//EN"
 "http://www.w3.org/TR/2001/REC-SVG-20010904/DTD/svg10.dtd">
<svg version="1.0" xmlns="http://www.w3.org/2000/svg"
 width="32.000000pt" height="32.000000pt" viewBox="0 0 32.000000 32.000000"
 preserveAspectRatio="xMidYMid meet">

<g transform="translate(0.000000,32.000000) scale(0.100000,-0.100000)"
fill="#000000" stroke="none">
<path d="M65 190 c0 -68 1 -70 25 -69 14 0 19 3 13 6 -20 8 -16 43 5 43 24 0
42 19 42 45 0 29 -19 45 -55 45 l-30 0 0 -70z m60 25 c0 -20 -6 -31 -17 -33
-15 -3 -18 4 -18 33 0 29 3 36 18 33 11 -2 17 -13 17 -33z"/>
<path d="M175 190 c0 -68 1 -70 25 -69 14 0 19 3 13 6 -17 6 -17 53 0 53 7 0
21 -13 30 -30 10 -16 26 -30 35 -30 11 0 13 3 6 8 -25 16 -35 51 -22 72 19 30
-1 54 -48 58 l-39 3 0 -71z m70 30 c0 -18 -6 -26 -22 -28 -20 -3 -23 1 -23 28
0 27 3 31 23 28 16 -2 22 -10 22 -28z"/>
<path d="M102 93 c37 -2 100 -2 140 0 40 1 10 3 -67 3 -77 0 -110 -1 -73 -3z"/>
<path d="M138 73 c23 -2 59 -2 80 0 20 2 1 4 -43 4 -44 0 -61 -2 -37 -4z"/>
<path d="M163 53 c9 -2 23 -2 30 0 6 3 -1 5 -18 5 -16 0 -22 -2 -12 -5z"/>
</g>
</svg>
